<svg width="354.33" height="354.33" xmlns="http://www.w3.org/2000/svg">

 <g>
  <title>background</title>
  <rect fill="none" id="canvas_background" height="402" width="582" y="-1" x="-1"/>
 </g>
 <g>
  <title>Layer 1</title>
  <g id="Ebene_2">
   <path id="svg_1" fill="none" stroke="#ffde00" stroke-miterlimit="10" stroke-width="4px" d="m208,289.38c-7.42,35 -18.29,57.12 -30.4,57.12c-22.37,0 -40.5,-75.38 -40.5,-168.37s18.1,-168.37 40.47,-168.37s40.5,75.38 40.5,168.37a624.52,624.52 0 0 1 -5.13,82.07"/>
   <path id="svg_2" fill="none" stroke="#ffde00" stroke-miterlimit="10" stroke-width="4px" d="m70.39,152.69c-29.47,-25.59 -45,-47.7 -38.63,-58.74c11.18,-19.37 85.53,2.62 166.06,49.11s136.75,99.89 125.56,119.26s-85.53,-2.62 -166.06,-49.11a633.54,633.54 0 0 1 -64.57,-42.47"/>
   <path id="svg_3" fill="none" stroke="#ffde00" stroke-miterlimit="10" stroke-width="4px" d="m255.49,97.25c35.71,-12 61.65,-14.12 67.89,-3.3c11.18,19.37 -45,72.76 -125.56,119.26s-154.88,68.48 -166.06,49.11s45,-72.76 125.56,-119.26a628.74,628.74 0 0 1 71.53,-35.72"/>
  </g>
  <g id="Ebene_3">
   <circle id="svg_4" fill="none" stroke="#1d1d1b" stroke-miterlimit="10" stroke-width="3px" r="33.65" cy="178.13" cx="177.57"/>
  </g>
  <g id="Ebene_4">
   <circle id="svg_5" fill="#009640" stroke="#1d1d1b" stroke-miterlimit="10" r="11.43" cy="185.43" cx="195.14"/>
   <circle id="svg_6" fill="#009640" stroke="#1d1d1b" stroke-miterlimit="10" r="11.43" cy="163.42" cx="171.99"/>
   <circle id="svg_7" fill="#e6332a" stroke="#1d1d1b" stroke-miterlimit="10" r="11.43" cy="167.85" cx="189.16"/>
   <circle id="svg_8" fill="#e6332a" stroke="#1d1d1b" stroke-miterlimit="10" r="11.43" cy="176.86" cx="160.56"/>
   <circle id="svg_9" fill="#009640" stroke="#1d1d1b" stroke-miterlimit="10" r="11.43" cy="193.42" cx="165.74"/>
   <circle id="svg_10" fill="#e6332a" stroke="#1d1d1b" stroke-miterlimit="10" r="11.43" cy="193.98" cx="183.99"/>
   <circle id="svg_11" fill="#009640" stroke="#1d1d1b" stroke-miterlimit="10" r="11.43" cy="179.28" cx="177.08"/>
  </g>
  <g id="Ebene_5">
   <circle id="svg_12" fill="#ffde00" stroke="#1d1d1b" stroke-miterlimit="10" r="8.69" cy="161.79" cx="81.02"/>
   <circle id="svg_13" fill="#ffde00" stroke="#1d1d1b" stroke-miterlimit="10" r="8.69" cy="275.07" cx="210.84"/>
   <circle id="svg_14" fill="#ffde00" stroke="#1d1d1b" stroke-miterlimit="10" r="8.69" cy="102.66" cx="242.24"/>
  </g>
  <g stroke="null" id="Ebene_6">
   <line stroke="#1d1d1b" id="svg_15" fill="none" stroke-miterlimit="10" y2="146.75" x2="257.18" y1="168.73" x1="192.02"/>
   <line stroke="#1d1d1b" id="svg_22" fill="none" stroke-miterlimit="10" y2="223.17" x2="257.18" y1="187.13" x1="200.31"/>
   <line stroke="#1d1d1b" id="svg_30" fill="none" stroke-miterlimit="10" y2="275.36" x2="257.18" y1="275.36" x1="211.12"/>
   <line stroke="#1d1d1b" id="svg_38" fill="none" stroke-miterlimit="10" y2="206.55" x2="88.57" y1="192.42" x1="146.13"/>
   <text xml:space="preserve" text-anchor="start" font-family="Georgia, Times, 'Times New Roman', serif" font-size="17" id="svg_47" y="281.383751" x="259.164993" fill-opacity="null" stroke-opacity="null" stroke-width="0" stroke="null" fill="#000000">Електрон</text>
  </g>
  <text xml:space="preserve" text-anchor="start" font-family="'Times New Roman', Times, serif" font-size="17" id="svg_52" y="228.883751" x="260.664993" fill-opacity="null" stroke-opacity="null" stroke-width="0" stroke="null" fill="#000000">Нейтрон</text>
  <text font-weight="normal" xml:space="preserve" text-anchor="start" font-family="'Times New Roman', Times, serif" font-size="17" id="svg_53" y="150.883751" x="262.664993" fill-opacity="null" stroke-opacity="null" stroke-width="0" stroke="null" fill="#000000">Протон</text>
  <text xml:space="preserve" text-anchor="start" font-family="'Times New Roman', Times, serif" font-size="17" id="svg_54" y="211.383751" x="43.664993" fill-opacity="null" stroke-opacity="null" stroke-width="0" stroke="null" fill="#000000">Ядро</text>
 </g>
</svg>